<?xml version="1.0" encoding="UTF-8"?>
<!DOCTYPE svg PUBLIC "-//W3C//DTD SVG 1.1//EN" "http://www.w3.org/Graphics/SVG/1.1/DTD/svg11.dtd">
<svg xmlns="http://www.w3.org/2000/svg" version="1.1" width="4999px" height="2812px" style="shape-rendering:geometricPrecision; text-rendering:geometricPrecision; image-rendering:optimizeQuality; fill-rule:evenodd; clip-rule:evenodd" xmlns:xlink="http://www.w3.org/1999/xlink">
<g><path style="opacity:0.995" fill="#000000" d="M 70.5,1067.5 C 137.812,1067.79 205.146,1068.12 272.5,1068.5C 273.333,1151.5 273.833,1234.5 274,1317.5C 344.833,1234.67 415.667,1151.83 486.5,1069C 487.766,1068.69 488.933,1068.19 490,1067.5C 579.333,1068.83 668.667,1068.83 758,1067.5C 758.75,1068.13 759.584,1068.63 760.5,1069C 679.833,1152.33 599.167,1235.67 518.5,1319C 603.084,1456.17 687.418,1593.5 771.5,1731C 686.831,1731.83 602.165,1731.67 517.5,1730.5C 471.647,1640.12 425.314,1550.12 378.5,1460.5C 343.215,1496.41 308.381,1532.74 274,1569.5C 273.5,1623.5 273.333,1677.5 273.5,1731.5C 204.833,1731.5 136.167,1731.5 67.5,1731.5C 67.5,1510.5 67.5,1289.5 67.5,1068.5C 68.791,1068.74 69.791,1068.4 70.5,1067.5 Z"/></g>
<g><path style="opacity:0.994" fill="#000000" d="M 4119.5,1067.5 C 4181.38,1067.6 4243.22,1067.93 4305,1068.5C 4305.33,1181.83 4305.67,1295.17 4306,1408.5C 4351.62,1356.09 4397.12,1303.59 4442.5,1251C 4518.17,1250.17 4593.84,1250.33 4669.5,1251.5C 4612.35,1307.82 4555.01,1363.99 4497.5,1420C 4558.55,1523.25 4619.21,1626.75 4679.5,1730.5C 4610.17,1731.67 4540.84,1731.83 4471.5,1731C 4439.28,1667.39 4406.95,1603.89 4374.5,1540.5C 4351.51,1562.32 4328.68,1584.32 4306,1606.5C 4305.5,1648.17 4305.33,1689.83 4305.5,1731.5C 4242.5,1731.5 4179.5,1731.5 4116.5,1731.5C 4116.5,1510.5 4116.5,1289.5 4116.5,1068.5C 4117.79,1068.74 4118.79,1068.4 4119.5,1067.5 Z"/></g>
<g><path style="opacity:0.99" fill="#000000" d="M 4737.5,1067.5 C 4797.68,1068.73 4857.84,1068.73 4918,1067.5C 4919.49,1109.69 4919.99,1152.02 4919.5,1194.5C 4857.83,1194.5 4796.17,1194.5 4734.5,1194.5C 4734.5,1152.5 4734.5,1110.5 4734.5,1068.5C 4735.79,1068.74 4736.79,1068.4 4737.5,1067.5 Z"/></g>
<g><path style="opacity:0.993" fill="#000000" d="M 1050.5,1239.5 C 1098.39,1238.72 1146.06,1241.55 1193.5,1248C 1232.84,1253.59 1266.34,1270.42 1294,1298.5C 1311.82,1321.24 1323.48,1346.91 1329,1375.5C 1330.77,1383.43 1332.1,1391.43 1333,1399.5C 1333.05,1486.51 1333.72,1573.51 1335,1660.5C 1337.63,1685.22 1344.8,1708.55 1356.5,1730.5C 1298.84,1731.67 1241.17,1731.83 1183.5,1731C 1179.28,1724.07 1175.45,1716.91 1172,1709.5C 1168.38,1697.88 1165.21,1686.21 1162.5,1674.5C 1121.43,1715.27 1071.76,1737.44 1013.5,1741C 975.233,1745.13 937.566,1742.13 900.5,1732C 848.744,1715.25 816.911,1680.42 805,1627.5C 795.921,1547.61 829.755,1496.11 906.5,1473C 916.109,1470.13 925.776,1467.46 935.5,1465C 985.34,1455.12 1035.01,1444.46 1084.5,1433C 1107.28,1426.8 1129.61,1419.3 1151.5,1410.5C 1155.55,1373.06 1138.89,1353.23 1101.5,1351C 1076.19,1348.76 1051.53,1352.43 1027.5,1362C 1010.82,1372.48 999.822,1387.31 994.5,1406.5C 948.267,1402.9 902.101,1398.23 856,1392.5C 855.667,1392.83 855.333,1393.17 855,1393.5C 849.01,1392.43 843.01,1391.43 837,1390.5C 836.667,1390.83 836.333,1391.17 836,1391.5C 830.01,1390.43 824.01,1389.43 818,1388.5C 822.909,1358.76 834.243,1331.76 852,1307.5C 881.389,1275.05 917.889,1255.55 961.5,1249C 991.095,1243.71 1020.76,1240.54 1050.5,1239.5 Z M 1151.5,1504.5 C 1152.66,1519.99 1152.83,1535.66 1152,1551.5C 1148.19,1588.3 1129.36,1614.14 1095.5,1629C 1073.65,1638.35 1050.99,1641.02 1027.5,1637C 1000.08,1630.24 987.244,1612.74 989,1584.5C 993.666,1565.49 1005.17,1552.33 1023.5,1545C 1028.42,1542.8 1033.42,1540.8 1038.5,1539C 1066.03,1530.53 1093.7,1522.53 1121.5,1515C 1131.71,1511.76 1141.71,1508.26 1151.5,1504.5 Z"/></g>
<g><path style="opacity:0.993" fill="#000000" d="M 2541.5,1239.5 C 2589.39,1238.72 2637.06,1241.55 2684.5,1248C 2723.84,1253.59 2757.34,1270.42 2785,1298.5C 2802.43,1321.41 2814.09,1347.08 2820,1375.5C 2821.77,1383.43 2823.1,1391.43 2824,1399.5C 2824.05,1486.51 2824.72,1573.51 2826,1660.5C 2828.63,1685.22 2835.8,1708.55 2847.5,1730.5C 2789.84,1731.67 2732.17,1731.83 2674.5,1731C 2663.51,1713.7 2656.68,1694.86 2654,1674.5C 2634.37,1693.57 2612.2,1709.07 2587.5,1721C 2538.83,1739.84 2488.5,1746.5 2436.5,1741C 2398.76,1738.21 2365.43,1724.87 2336.5,1701C 2301.65,1667.44 2288.15,1626.61 2296,1578.5C 2303.72,1531.78 2329.56,1499.61 2373.5,1482C 2390.71,1474.95 2408.37,1469.28 2426.5,1465C 2476.34,1455.12 2526.01,1444.46 2575.5,1433C 2598.28,1426.8 2620.61,1419.3 2642.5,1410.5C 2646.56,1373.06 2629.89,1353.23 2592.5,1351C 2567.19,1348.76 2542.53,1352.43 2518.5,1362C 2501.82,1372.48 2490.82,1387.31 2485.5,1406.5C 2439.27,1402.9 2393.1,1398.23 2347,1392.5C 2346.67,1392.83 2346.33,1393.17 2346,1393.5C 2340.01,1392.43 2334.01,1391.43 2328,1390.5C 2327.67,1390.83 2327.33,1391.17 2327,1391.5C 2321.01,1390.43 2315.01,1389.43 2309,1388.5C 2316.26,1338.11 2341.43,1299.61 2384.5,1273C 2405.72,1261.04 2428.39,1253.04 2452.5,1249C 2482.1,1243.71 2511.76,1240.54 2541.5,1239.5 Z M 2642.5,1504.5 C 2643.66,1519.99 2643.83,1535.66 2643,1551.5C 2640.9,1580.22 2628.06,1602.72 2604.5,1619C 2574.78,1638.44 2542.78,1643.44 2508.5,1634C 2487.28,1624.4 2477.78,1607.9 2480,1584.5C 2484.67,1565.49 2496.17,1552.33 2514.5,1545C 2519.42,1542.8 2524.42,1540.8 2529.5,1539C 2557.03,1530.53 2584.7,1522.53 2612.5,1515C 2622.71,1511.76 2632.71,1508.26 2642.5,1504.5 Z"/></g>
<g><path style="opacity:0.991" fill="#000000" d="M 3138.5,1239.5 C 3171.91,1239.29 3205.25,1240.79 3238.5,1244C 3317.24,1252.59 3369.91,1294.09 3396.5,1368.5C 3394.99,1369.86 3393.49,1370.2 3392,1369.5C 3336.58,1375.39 3281.08,1381.06 3225.5,1386.5C 3223.9,1386.45 3222.4,1386.12 3221,1385.5C 3216.86,1370.02 3208.03,1358.19 3194.5,1350C 3172.65,1339.12 3149.65,1335.78 3125.5,1340C 3108.62,1341.9 3096.45,1350.4 3089,1365.5C 3084.53,1383.73 3091.03,1396.23 3108.5,1403C 3120.26,1406.94 3132.26,1409.94 3144.5,1412C 3177.53,1416.42 3210.53,1421.09 3243.5,1426C 3277.43,1430.98 3309.76,1440.98 3340.5,1456C 3396.35,1489.54 3419.51,1538.7 3410,1603.5C 3399.38,1649.1 3373.88,1683.6 3333.5,1707C 3300.75,1724.94 3265.75,1735.61 3228.5,1739C 3171.33,1744.62 3114.33,1743.28 3057.5,1735C 3017.77,1729.89 2982.77,1714.56 2952.5,1689C 2925.57,1663.79 2908.9,1633.13 2902.5,1597C 2962.88,1591.37 3023.21,1585.54 3083.5,1579.5C 3087.62,1587.74 3091.79,1596.07 3096,1604.5C 3106.3,1621.45 3121.13,1632.28 3140.5,1637C 3160.83,1641.63 3181.16,1641.63 3201.5,1637C 3216.27,1633.53 3228.44,1626.03 3238,1614.5C 3248.27,1592.32 3242.44,1575.82 3220.5,1565C 3208.77,1560.73 3196.77,1557.4 3184.5,1555C 3135.17,1546.61 3086.17,1536.61 3037.5,1525C 2994.92,1515.38 2962.08,1492.22 2939,1455.5C 2915.61,1410.68 2915.95,1366.01 2940,1321.5C 2962.17,1288.7 2992.33,1266.53 3030.5,1255C 3065.98,1245.27 3101.98,1240.1 3138.5,1239.5 Z"/></g>
<g><path style="opacity:0.992" fill="#000000" d="M 3724.5,1239.5 C 3774.11,1238.58 3823.44,1241.75 3872.5,1249C 3941.24,1260.59 3984.07,1300.09 4001,1367.5C 4003.05,1376.09 4004.72,1384.76 4006,1393.5C 4007.02,1483.16 4008.02,1572.83 4009,1662.5C 4011.65,1686.63 4018.82,1709.29 4030.5,1730.5C 3972.5,1731.83 3914.5,1731.83 3856.5,1730.5C 3845.73,1713.03 3839.23,1694.03 3837,1673.5C 3795.94,1714.77 3746.11,1737.27 3687.5,1741C 3654.24,1744.17 3621.24,1742.51 3588.5,1736C 3542.84,1725.62 3509.34,1699.79 3488,1658.5C 3473.05,1621.98 3472.71,1585.31 3487,1548.5C 3498.24,1521.26 3517.07,1501.09 3543.5,1488C 3565.85,1477.22 3589.19,1469.22 3613.5,1464C 3664.42,1454.15 3715.09,1443.15 3765.5,1431C 3785.89,1425.26 3805.89,1418.43 3825.5,1410.5C 3827.2,1396.87 3825.03,1383.87 3819,1371.5C 3810.38,1359.43 3798.54,1352.93 3783.5,1352C 3756.87,1348.66 3730.87,1351.33 3705.5,1360C 3690.49,1367.46 3679.66,1378.96 3673,1394.5C 3671.19,1398.76 3669.69,1403.09 3668.5,1407.5C 3609.3,1401.27 3550.3,1395.27 3491.5,1389.5C 3504.15,1314.68 3547.48,1268.85 3621.5,1252C 3655.6,1244.71 3689.94,1240.55 3724.5,1239.5 Z M 3824.5,1504.5 C 3825.83,1511.64 3826.5,1519.14 3826.5,1527C 3829.29,1590.55 3799.29,1627.55 3736.5,1638C 3721.97,1639.37 3707.64,1638.37 3693.5,1635C 3670.35,1625.22 3660.19,1607.72 3663,1582.5C 3666.26,1568.91 3673.76,1558.41 3685.5,1551C 3693.26,1546.79 3701.26,1543.12 3709.5,1540C 3739.03,1530.87 3768.7,1522.2 3798.5,1514C 3807.46,1511.3 3816.12,1508.13 3824.5,1504.5 Z"/></g>
<g><path style="opacity:0.994" fill="#000000" d="M 1389.5,1250.5 C 1449.17,1250.5 1508.83,1250.5 1568.5,1250.5C 1593.37,1350.66 1618.87,1450.66 1645,1550.5C 1677.07,1450.8 1709.23,1351.13 1741.5,1251.5C 1797.4,1250.17 1853.23,1250.17 1909,1251.5C 1942.08,1351.76 1975.75,1451.76 2010,1551.5C 2035.66,1451.19 2061.16,1350.86 2086.5,1250.5C 2145.84,1250.17 2205.17,1250.5 2264.5,1251.5C 2205.57,1411.13 2146.73,1570.79 2088,1730.5C 2032.9,1731.5 1977.74,1731.83 1922.5,1731.5C 1890.91,1635.66 1858.75,1539.99 1826,1444.5C 1795.2,1539.9 1764.2,1635.23 1733,1730.5C 1677.9,1731.66 1622.74,1731.83 1567.5,1731C 1507.67,1571.01 1448.34,1410.84 1389.5,1250.5 Z"/></g>
<g><path style="opacity:0.994" fill="#000000" d="M 4734.5,1250.5 C 4796.17,1250.5 4857.83,1250.5 4919.5,1250.5C 4919.5,1410.83 4919.5,1571.17 4919.5,1731.5C 4857.83,1731.5 4796.17,1731.5 4734.5,1731.5C 4734.5,1571.17 4734.5,1410.83 4734.5,1250.5 Z"/></g>
</svg>
