<?xml version="1.0" encoding="UTF-8"?><svg id="Layer_1" xmlns="http://www.w3.org/2000/svg" viewBox="0 0 512 512"><defs><style>.cls-1{fill:#dc4226;}.cls-2{fill:#253c80;}</style></defs><path class="cls-2" d="M44.71,283.57h-8.94l-3.48,12.87h43.32l3.33-12.87h-10.45l10.45-42.86h7.12l-.61,7.12h15l6.06-22.57H34.41l-5.91,22.57h15.6l3.18-7.27h7.72l-10.3,43.02Zm112.99-58.31h33.47l-44.68,71.19h-28.02l-3.94-58.31h-5.76l3.33-12.87h37.11l-3.33,12.87h-6.36l-.15,36.5,21.36-36.5h-7.12l4.09-12.87Zm85.88,21.05c0-7.12,2.27-13.48,5.15-19.99-12.57-2.27-26.2-3.18-38.62,0-6.97,1.82-14.24,6.21-18.18,12.42-4.54,6.97-3.48,15.9,2.12,21.81,2.88,2.88,6.36,4.85,10,6.51,2.88,1.36,7.88,3.48,8.63,6.82,2.12,8.48-11.51,9.24-16.81,7.57v-6.66h-14.24l-5.45,19.84c12.72,3.18,26.05,4.24,38.93,1.36,7.72-1.82,14.69-5.76,19.84-11.97,4.24-5.3,6.66-15.15,2.12-20.9-2.57-3.18-5.45-5.6-8.94-7.57-3.33-1.97-6.97-3.18-10-5.45-3.64-2.73-3.64-6.97,.3-9.39,3.03-1.97,8.03-1.06,11.36-.45l.61,5.91h13.18v.15Z"/><g><path class="cls-1" d="M438.97,225.11c-5.91-2.27-11.51-2.12-17.57-.61-5.91,1.51-10.15,4.85-14.84,8.48-4.7,3.64-9.69,7.27-15.15,9.69-5.6,2.42-11.97,5-18.02,2.57,4.39,.15,8.48-.76,12.27-3.18,2.88-1.82,7.88-5.6,8.94-9.09h-5c3.64-3.94,8.18-6.97,13.18-8.78l-2.42-2.88c6.66-4.54,13.93-6.66,21.96-6.97,3.79-.15,7.57,.3,11.06,1.36,3.79,1.06,6.66,2.88,9.39,5.6l-3.79,3.79Zm-95.88,15.9c-2.12,0-3.94,.15-6.06,.76-1.97,.61-3.79,1.36-5.76,2.12-3.64,1.51-7.12,3.48-10.6,5.3-1.51,.76-3.33,1.67-5,1.97-1.82,.3-4.24,.3-5.91-.45-1.82-.91-3.33-1.82-4.85-3.18s-3.03-2.73-4.54-3.79c-1.67-1.06-3.33-1.82-5-2.88,.76,0,4.7-.15,3.64-1.82-.91-1.36-3.03-1.97-4.7-2.27-3.79-.76-7.57-.76-11.36-.76,3.18-2.73,6.66-4.09,10.91-4.09,3.94,0,7.12,1.82,10.45,3.79,1.67,1.06,3.64,2.88,5.3,3.94s3.48,1.67,5.3,2.27c3.48,1.21,7.88,.61,11.36-.61,2.88-1.06,5.45-2.27,8.63-2.27,2.88-.45,5.6,.3,8.18,1.97h0Z"/><path class="cls-1" d="M313.41,271.46c6.21-.3,11.36-6.36,14.84-10.91,3.79-4.85,6.36-12.12,12.27-14.84,8.78-3.94,18.02-.61,26.05,3.64,7.57,3.79,18.18,3.18,25.75-.15,8.33-3.64,14.69-9.85,21.81-15.15,6.66-5,15.3-8.48,25.6-5.76l4.54-5.45,.91,8.94,16.06,16.21-3.18,3.79h-10.3v-2.57c-3.03-2.12-6.21-3.64-10-3.18-3.94,.45-8.18,2.27-7.57,6.97,.45,3.18,5,6.06,7.27,7.72,3.18,2.12,6.51,4.09,9.85,6.21,6.82,4.24,13.33,8.94,19.69,13.93,5.91,4.7,11.97,9.54,16.51,15.45l-13.93-2.73c2.57-1.82-.45-3.79-2.12-5.15-2.12-1.67-4.24-3.03-6.66-4.39-4.7-2.57-9.69-3.94-14.84-5.15-9.85-2.42-22.57-3.94-31.2,2.27-.3,.15-.61,.45-.91,.61l-4.85-4.09c-15.6,5.3-33.02,3.94-47.41-3.94-5.91,4.09-12.72,5-19.54,5.76-6.51,.76-13.33,.3-19.99-.3-15.9,13.18-37.56,20.9-57.86,13.93l13.63-3.48v3.03c14.69,0,26.96-10.3,35.59-21.21h0Z"/></g></svg>